# xmcd
#
# Track frame offsets: 
#        150
#        11900
#        24261
#        36750
#        49703
#        64122
#        76698
#        91002
#        103807
#        118088
#        132850
#        145662
#        160222
#        173399
#        187429
#        196973
#        208670
#        227977
#        245949
#        258386
#        275175
#        284807
#
# Disc length: 3952 seconds
#
# Revision: 0
# Processed by: cddbd v1.5PL3 Copyright (c) Steve Scherf et al.
# Submitted via: ExactAudioCopy v0.90a11
#
DISCID=460f6e16
DTITLE=FREDDY FENDER - Crazy Cajun Recordings CD 3
DYEAR=1900
DGENRE=
TTITLE0=Estare Contigo Cuando Triste Estas
TTITLE1=Dias Y Noches Perdidas
TTITLE2=Vaya Con Dios
TTITLE3=Rancho Grande
TTITLE4=Estos Brazos
TTITLE5=Hablame
TTITLE6=Rosas Linda Son
TTITLE7=Tu Se Vas
TTITLE8=Amor Secreto
TTITLE9=No Tocan Ya
TTITLE10=Cancion Mixteca
TTITLE11=Amor De Secunda
TTITLE12=Carino
TTITLE13=Juegos
TTITLE14=Mis Suenos
TTITLE15=Un Momento
TTITLE16=Hambre
TTITLE17=Camaron
TTITLE18=Si Me Das Tu Amor
TTITLE19=Noche De Graduar
TTITLE20=Triste Amor
TTITLE21=Tenemor Que Pensario
EXTD=
EXTT0=
EXTT1=
EXTT2=
EXTT3=
EXTT4=
EXTT5=
EXTT6=
EXTT7=
EXTT8=
EXTT9=
EXTT10=
EXTT11=
EXTT12=
EXTT13=
EXTT14=
EXTT15=
EXTT16=
EXTT17=
EXTT18=
EXTT19=
EXTT20=
EXTT21=
PLAYORDER=
